<svg width="22" height="517" viewBox="0 0 22 517" fill="none" xmlns="http://www.w3.org/2000/svg">
<path d="M0.334496 11C0.334496 16.891 5.11013 21.6667 11.0012 21.6667C16.8922 21.6667 21.6678 16.891 21.6678 11C21.6678 5.10896 16.8922 0.333333 11.0012 0.333333C5.11012 0.333334 0.334496 5.10896 0.334496 11ZM0.333355 506C0.333355 511.891 5.10898 516.667 11 516.667C16.8911 516.667 21.6667 511.891 21.6667 506C21.6667 500.109 16.8911 495.333 11 495.333C5.10898 495.333 0.333355 500.109 0.333355 506ZM9.00116 11L9.00059 258.5L13.0006 258.5L13.0012 11L9.00116 11ZM9.00059 258.5L9.00002 506L13 506L13.0006 258.5L9.00059 258.5Z" fill="white"/>
<circle cx="10.5" cy="248.5" r="10.5" fill="white"/>
</svg>
