<?xml version="1.0" encoding="UTF-8"?>
<svg id="icon" xmlns="http://www.w3.org/2000/svg" viewBox="0 0 32 32">
  <defs>
    <style>
      .cls-1 {
        fill: #fff;
        stroke-width: 0px;
      }
    </style>
  </defs>
  <path class="cls-1" d="M27.93,11.05c-.02-.99-.21-1.98-.56-2.91-.63-1.61-1.9-2.89-3.51-3.51-.93-.35-1.92-.54-2.92-.56-1.27-.06-1.68-.07-4.94-.07s-3.67.01-4.95.07c-1,.02-1.98.21-2.91.56-1.61.62-2.89,1.9-3.51,3.51-.35.93-.54,1.92-.56,2.91-.06,1.28-.07,1.69-.07,4.95s.01,3.67.07,4.95c.02.99.21,1.98.56,2.91.62,1.61,1.9,2.89,3.51,3.51.93.35,1.92.54,2.91.56,1.01.05,1.48.06,3.22.07v-8.4h-3.08v-3.68h3.14c0-1.06-.01-2.04,0-3.03.03-2.26,1.3-4.08,3.36-4.48,1.35-.26,2.76-.18,4.17-.26v3.64h-1.05c-.36,0-.72-.01-1.08,0-.8.03-1.39.43-1.45,1.15-.08.95-.02,1.91-.02,2.95h3.37c-.17,1.16-.31,2.23-.5,3.3-.03.15-.32.33-.5.35-.55.05-1.11.06-1.66.01-.59-.05-.79.15-.78.76.03,2.07.07,6.73.08,7.68,1.32,0,1.79-.02,2.68-.07.99-.02,1.98-.21,2.91-.56,1.61-.62,2.88-1.9,3.51-3.51.35-.93.54-1.92.56-2.91.05-1.28.07-1.69.07-4.95s-.02-3.67-.07-4.95Z"/>
</svg>