<?xml version="1.0" encoding="UTF-8"?>
<svg id="icon" xmlns="http://www.w3.org/2000/svg" viewBox="0 0 32 32">
  <defs>
    <style>
      .cls-1 {
        fill: #fff;
        stroke-width: 0px;
      }
    </style>
  </defs>
  <path class="cls-1" d="M22.61,10.99c-.29-.74-.87-1.32-1.61-1.61-.51-.18-1.05-.29-1.58-.29-.89-.05-1.16-.06-3.42-.06s-2.54,0-3.43.06c-.54,0-1.07.1-1.57.29-.74.29-1.32.87-1.61,1.61-.19.51-.29,1.04-.3,1.57-.04.9-.05,1.17-.05,3.43s0,2.54.05,3.43c0,.54.11,1.06.3,1.57.29.74.87,1.32,1.61,1.61.5.18,1.04.29,1.57.29.9.05,1.17.06,3.43.06s2.54,0,3.42-.06c.54,0,1.07-.1,1.58-.29.74-.29,1.32-.87,1.61-1.61.19-.51.28-1.04.29-1.57.05-.9.05-1.17.05-3.43s0-2.54-.05-3.43c0-.54-.1-1.06-.29-1.57ZM16,20.36c-2.41,0-4.36-1.95-4.36-4.36s1.95-4.36,4.36-4.36,4.36,1.95,4.36,4.36-1.95,4.36-4.36,4.36ZM20.52,12.49c-.56,0-1.02-.46-1.02-1.03s.45-1.02,1.02-1.02,1.02.46,1.02,1.02-.45,1.03-1.02,1.03Z"/>
  <path class="cls-1" d="M16,13.17c-1.56,0-2.83,1.27-2.83,2.83s1.27,2.83,2.83,2.83,2.82-1.27,2.82-2.83-1.26-2.83-2.82-2.83Z"/>
  <path class="cls-1" d="M27.93,11.05c-.02-.99-.21-1.98-.56-2.91-.62-1.61-1.9-2.89-3.51-3.51-.93-.35-1.92-.54-2.91-.56-1.28-.06-1.69-.07-4.95-.07s-3.67.01-4.95.07c-.99.02-1.98.21-2.91.56-1.61.62-2.88,1.9-3.51,3.51-.35.93-.54,1.92-.56,2.91-.05,1.28-.07,1.69-.07,4.95s.02,3.67.07,4.95c.02.99.21,1.98.56,2.91.63,1.61,1.9,2.89,3.51,3.51.93.35,1.92.54,2.91.56,1.28.06,1.69.07,4.95.07s3.67-.01,4.95-.07c.99-.02,1.98-.21,2.91-.56,1.61-.62,2.89-1.9,3.51-3.51.35-.93.54-1.92.56-2.91.06-1.28.07-1.69.07-4.95s-.01-3.67-.07-4.95ZM25.11,19.78c-.01.76-.16,1.51-.42,2.23-.48,1.23-1.45,2.2-2.69,2.68-.71.27-1.46.41-2.22.43-.98.04-1.29.05-3.78.05s-2.81-.01-3.78-.05c-.76-.02-1.52-.16-2.23-.43-1.23-.48-2.21-1.45-2.68-2.68-.27-.72-.41-1.47-.43-2.23-.04-.98-.05-1.29-.05-3.78s.01-2.8.05-3.78c.02-.76.16-1.51.43-2.23.47-1.23,1.45-2.2,2.68-2.68.71-.27,1.47-.41,2.23-.43.97-.04,1.29-.05,3.78-.05s2.8.01,3.78.06c.76.01,1.51.15,2.22.42,1.24.48,2.21,1.45,2.69,2.68.26.72.41,1.47.42,2.23.05.98.06,1.29.06,3.78s-.01,2.8-.06,3.78Z"/>
</svg>