<?xml version="1.0" encoding="utf-8"?>
<!-- Generator: Adobe Illustrator 28.2.0, SVG Export Plug-In . SVG Version: 6.00 Build 0)  -->
<svg version="1.1" id="Ebene_1" xmlns="http://www.w3.org/2000/svg" xmlns:xlink="http://www.w3.org/1999/xlink" x="0px" y="0px"
	 viewBox="0 0 637.78 177.78" style="enable-background:new 0 0 637.78 177.78;" xml:space="preserve">
<style type="text/css">
	.st0{fill:#FFFFFF;}
</style>
<path class="st0" d="M196.64,82.73l9.06,9.48l-9.06,6.75V82.73z M227.3,51.96v41.31l-40.78-41.31h-4.64v73.87h4.53l29.82-22.66
	l21.92,22.66h3.9V51.96H227.3z"/>
<g>
	<path class="st0" d="M498.39,66.08V51.32h14.75V97.9c0,3.94-0.74,7.64-2.21,11.12c-1.48,3.48-3.51,6.52-6.11,9.11
		c-2.6,2.6-5.62,4.64-9.07,6.12c-3.44,1.48-7.13,2.21-11.06,2.21c-3.94,0-7.64-0.74-11.12-2.21s-6.52-3.51-9.11-6.12
		c-2.6-2.6-4.65-5.62-6.16-9.06c-1.51-3.44-2.27-7.13-2.27-11.06V51.32h14.76v14.76v14.75V97.9c0,1.83,0.37,3.59,1.1,5.27
		s1.74,3.16,3,4.43s2.74,2.27,4.43,3c1.69,0.73,3.48,1.1,5.37,1.1s3.67-0.35,5.32-1.06c1.65-0.7,3.09-1.67,4.32-2.89
		c1.23-1.23,2.21-2.69,2.95-4.38c0.74-1.69,1.11-3.48,1.11-5.37V80.83V66.08z"/>
	<path class="st0" d="M154.94,66.08V51.32h14.75V97.9c0,3.94-0.74,7.64-2.21,11.12s-3.51,6.52-6.11,9.11
		c-2.6,2.6-5.62,4.64-9.07,6.12c-3.44,1.48-7.13,2.21-11.06,2.21c-3.94,0-7.64-0.74-11.12-2.21c-3.48-1.48-6.52-3.51-9.11-6.12
		c-2.6-2.6-4.65-5.62-6.16-9.06c-1.51-3.44-2.27-7.13-2.27-11.06V51.32h14.76v14.76v14.75V97.9c0,1.83,0.37,3.59,1.1,5.27
		c0.74,1.69,1.74,3.16,3,4.43c1.27,1.27,2.74,2.27,4.43,3c1.69,0.73,3.48,1.1,5.37,1.1s3.67-0.35,5.32-1.06
		c1.65-0.7,3.09-1.67,4.32-2.89c1.23-1.23,2.21-2.69,2.95-4.38c0.74-1.69,1.11-3.48,1.11-5.37V80.83V66.08z"/>
</g>
<path class="st0" d="M392.55,80.41l15.39,30.66h-30.77L392.55,80.41z M415.52,51.96l-10.54,20.76l-10.64-20.76h-3.59l-35.62,69.96
	v3.9h74.82v-3.9L413.1,88.63l4.22-8.22l22.76,45.41h14.65v-3.9L419.1,51.96H415.52z"/>
<g>
	<path class="st0" d="M275.72,94.42c-2.67-0.7-5.27-1.67-7.8-2.9c-2.53-1.23-4.78-2.75-6.75-4.59c-1.97-1.82-3.57-3.95-4.8-6.37
		c-1.23-2.42-1.85-5.22-1.85-8.38c0-2.95,0.58-5.74,1.74-8.38c1.16-2.63,2.76-4.92,4.8-6.85c2.04-1.93,4.43-3.46,7.17-4.59
		c2.74-1.12,5.69-1.69,8.85-1.69c2.67,0,5.07,0.23,7.22,0.68c2.14,0.46,4.09,1.04,5.85,1.74c1.75,0.7,3.37,1.49,4.85,2.37
		c1.48,0.88,2.88,1.73,4.22,2.58l2.42,1.58l-7.69,12.54l-2.63-1.69c-1.2-0.77-2.3-1.48-3.32-2.11c-1.02-0.63-2.07-1.16-3.16-1.58
		c-1.09-0.42-2.25-0.75-3.48-1c-1.23-0.24-2.65-0.37-4.27-0.37c-0.91,0-1.84,0.16-2.79,0.48c-0.95,0.31-1.79,0.75-2.53,1.31
		c-0.74,0.56-1.33,1.25-1.79,2.06c-0.45,0.81-0.68,1.7-0.68,2.69c0,1.54,0.37,2.79,1.11,3.74c0.74,0.95,1.69,1.72,2.84,2.32
		c1.16,0.6,2.42,1.09,3.8,1.48c1.37,0.39,2.65,0.76,3.84,1.11c6.96,2.32,12.4,5.58,16.33,9.8c3.86,4.28,5.79,9.1,5.79,14.44
		c0,2.6-0.52,5.18-1.58,7.75c-1.06,2.56-2.5,4.86-4.32,6.9c-4.43,5.06-10.08,7.59-16.96,7.59c-1.62,0-3.51-0.11-5.69-0.32
		c-2.18-0.21-4.6-0.7-7.27-1.48c-6.82-2.11-12.68-5.83-17.6-11.17l10.75-10.12c1.97,2.11,3.95,3.73,5.95,4.85s3.9,1.95,5.69,2.48
		c1.79,0.53,3.39,0.83,4.8,0.89c1.4,0.07,2.53,0.11,3.37,0.11c1.54,0,2.83-0.3,3.84-0.9c1.02-0.6,1.85-1.3,2.48-2.11
		c0.63-0.81,1.08-1.64,1.37-2.48c0.28-0.85,0.42-1.51,0.42-2c0-2.04-1.09-3.94-3.27-5.69C282.81,97.41,279.72,95.83,275.72,94.42"/>
</g>
<polygon class="st0" points="80.76,52.01 59.15,75.82 59.15,52.01 44.4,52.01 44.4,125.77 59.15,125.77 59.15,97.81 64.85,92.05 
	83.45,125.77 99.11,125.75 98.97,121.77 84.52,97.27 103.45,76.56 103.49,58.68 99.31,58.67 76.68,83.98 74.86,80.88 96.93,56.19 
	96.93,52.01 "/>
<g>
	<path class="st0" d="M540.55,79.24c1.34-2.84,3.07-5.25,5.22-7.22c2.14-1.96,4.6-3.46,7.38-4.47c2.77-1.02,5.64-1.53,8.59-1.53
		c2.25,0,4.44,0.3,6.58,0.9c1.62,0.45,3.19,1.09,4.72,1.93l-31.63,31.63c-0.32-0.58-0.63-1.17-0.91-1.79
		c-1.3-2.88-1.94-6.15-1.94-9.8C538.55,85.31,539.21,82.09,540.55,79.24 M568.79,110.96c-2.32,0.74-4.71,1.11-7.17,1.11
		c-2.88,0-5.71-0.53-8.48-1.58c-0.19-0.07-0.37-0.16-0.55-0.24l40.79-40.79h0c-2.25-3.72-5.06-7.02-8.42-9.91
		c-0.32-0.27-0.68-0.51-1.01-0.77l0.02-0.03c-0.32-0.25-0.72-0.53-1.15-0.83c-2.33-1.67-4.96-3.08-7.67-4.22
		c-0.74-0.33-1.48-0.64-2.19-0.9c-3.97-1.44-8.17-2.16-12.59-2.16c-5.27,0-10.22,1-14.85,3c-4.64,2-8.7,4.74-12.18,8.22
		c-3.48,3.48-6.21,7.54-8.22,12.17c-2,4.64-3,9.59-3,14.86c0,5.27,1,10.22,3,14.85c2,4.64,4.74,8.69,8.22,12.17
		s7.54,6.22,12.18,8.22c4.63,2,9.58,3,14.85,3c4.64,0,9.03-0.79,13.17-2.37c4.14-1.58,7.9-3.74,11.27-6.48l-9.48-10.85
		C573.28,109.05,571.11,110.23,568.79,110.96"/>
</g>
<polygon class="st0" points="333.75,61.42 305.88,51.95 305.88,63.66 307.77,67.39 326.32,74.61 326.42,74.61 326.42,125.82 
	341.18,125.82 341.18,74.61 359.72,67.39 361.61,63.66 361.62,51.95 "/>
</svg>
