<?xml version="1.0" encoding="UTF-8"?>
<svg id="icon" xmlns="http://www.w3.org/2000/svg" viewBox="0 0 32 32">
  <defs>
    <style>
      .cls-1 {
        fill: #fff;
        stroke-width: 0px;
      }
    </style>
  </defs>
  <path class="cls-1" d="M14.23,18.78c1.54-.93,2.98-1.8,4.58-2.76-1.58-.95-3.05-1.84-4.58-2.76v5.52Z"/>
  <path class="cls-1" d="M27.93,11.05c-.02-.99-.21-1.98-.56-2.91-.63-1.61-1.9-2.89-3.51-3.51-.93-.35-1.92-.54-2.92-.56-1.27-.06-1.68-.07-4.94-.07s-3.67.01-4.95.07c-1,.02-1.98.21-2.91.56-1.61.62-2.89,1.9-3.51,3.51-.35.93-.54,1.92-.56,2.91-.06,1.28-.07,1.69-.07,4.95s0,3.67.07,4.95c.02.99.21,1.98.56,2.91.62,1.61,1.9,2.89,3.51,3.51.93.35,1.92.54,2.91.56,1.28.06,1.69.07,4.95.07s3.67-.01,4.95-.07c.99-.02,1.98-.21,2.91-.56,1.61-.62,2.88-1.9,3.51-3.51.35-.93.54-1.92.56-2.91.05-1.28.07-1.69.07-4.95s-.02-3.67-.07-4.95ZM24.49,18.35c-.07,2.18-1.75,3.77-3.92,3.78h-9.2c-2.07-.01-3.71-1.44-3.83-3.5-.1-1.74-.1-3.51,0-5.26.12-1.99,1.69-3.44,3.7-3.47,3.14-.04,6.29-.04,9.43,0,2.15.03,3.76,1.67,3.82,3.81.05,1.55.05,3.09,0,4.64Z"/>
</svg>