<?xml version="1.0" encoding="utf-8"?>
<!-- Generator: Adobe Illustrator 16.0.4, SVG Export Plug-In . SVG Version: 6.00 Build 0)  -->
<!DOCTYPE svg PUBLIC "-//W3C//DTD SVG 1.1//EN" "http://www.w3.org/Graphics/SVG/1.1/DTD/svg11.dtd">
<svg version="1.1" id="Ebene_1" xmlns="http://www.w3.org/2000/svg" xmlns:xlink="http://www.w3.org/1999/xlink" x="0px" y="0px"
	 width="221.103px" height="221.199px" viewBox="-21.022 -21.028 221.103 221.199"
	 enable-background="new -21.022 -21.028 221.103 221.199" xml:space="preserve">
<g>
	<g id="PageItem2093" transform="scale(1)">
		<path fill="#FFFFFF" d="M89.836,198.079c-59.831,0-108.506-48.676-108.506-108.509c0-59.831,48.675-108.507,108.506-108.507
			c59.832,0,108.508,48.676,108.508,108.507C198.344,149.404,149.667,198.079,89.836,198.079"/>
	</g>
	<g id="PageItem2094" transform="scale(1)">
		<path fill="#1B1B19" d="M89.528-17.327c-28.552,0-55.397,11.119-75.589,31.309c-41.678,41.681-41.678,109.499,0,151.18
			c20.192,20.189,47.037,31.31,75.589,31.31c28.553,0,55.399-11.12,75.589-31.31c41.68-41.681,41.68-109.499,0-151.18
			C144.927-6.208,118.082-17.327,89.528-17.327 M89.528,200.175c-29.543,0-57.317-11.505-78.208-32.395
			c-43.123-43.124-43.123-113.292,0-156.418C32.211-9.527,59.985-21.032,89.528-21.032c29.544,0,57.319,11.505,78.208,32.395
			c43.124,43.125,43.124,113.294,0,156.418C146.846,188.67,119.073,200.175,89.528,200.175"/>
	</g>
	<g id="PageItem2095" transform="scale(1)">
		<path fill="#1B1B19" d="M64.78,28.202c0-0.506,0.407-0.914,0.926-0.914c0.507,0,0.926,0.408,0.926,0.914
			c0,0.519-0.419,0.926-0.926,0.926C65.187,29.129,64.78,28.721,64.78,28.202 M68.484,28.202c0-0.506,0.42-0.914,0.926-0.914
			c0.519,0,0.926,0.408,0.926,0.914c0,0.519-0.407,0.926-0.926,0.926C68.904,29.129,68.484,28.721,68.484,28.202 M72.202,28.202
			c0-0.506,0.419-0.914,0.926-0.914c0.506,0,0.926,0.408,0.926,0.914c0,0.519-0.42,0.926-0.926,0.926
			C72.621,29.129,72.202,28.721,72.202,28.202 M75.918,28.202c0-0.506,0.407-0.914,0.926-0.914c0.506,0,0.926,0.408,0.926,0.914
			c0,0.519-0.42,0.926-0.926,0.926C76.325,29.129,75.918,28.721,75.918,28.202 M79.623,28.202c0-0.506,0.421-0.914,0.926-0.914
			c0.52,0,0.926,0.408,0.926,0.914c0,0.519-0.406,0.926-0.926,0.926C80.043,29.129,79.623,28.721,79.623,28.202 M83.339,28.202
			c0-0.506,0.42-0.914,0.926-0.914c0.519,0,0.926,0.408,0.926,0.914c0,0.519-0.408,0.926-0.926,0.926
			C83.759,29.129,83.339,28.721,83.339,28.202 M87.056,28.202c0-0.506,0.408-0.914,0.926-0.914c0.506,0,0.927,0.408,0.927,0.914
			c0,0.519-0.421,0.926-0.927,0.926C87.464,29.129,87.056,28.721,87.056,28.202 M90.773,28.202c0-0.506,0.408-0.914,0.914-0.914
			c0.519,0,0.938,0.408,0.938,0.914c0,0.519-0.42,0.926-0.938,0.926C91.181,29.129,90.773,28.721,90.773,28.202 M94.478,28.202
			c0-0.506,0.419-0.914,0.926-0.914c0.519,0,0.926,0.408,0.926,0.914c0,0.519-0.407,0.926-0.926,0.926
			C94.897,29.129,94.478,28.721,94.478,28.202 M98.194,28.202c0-0.506,0.408-0.914,0.927-0.914c0.506,0,0.926,0.408,0.926,0.914
			c0,0.519-0.42,0.926-0.926,0.926C98.602,29.129,98.194,28.721,98.194,28.202 M101.899,28.202c0-0.506,0.419-0.914,0.938-0.914
			c0.508,0,0.927,0.408,0.927,0.914c0,0.519-0.419,0.926-0.927,0.926C102.318,29.129,101.899,28.721,101.899,28.202 M105.615,28.202
			c0-0.506,0.42-0.914,0.927-0.914c0.519,0,0.926,0.408,0.926,0.914c0,0.519-0.407,0.926-0.926,0.926
			C106.035,29.129,105.615,28.721,105.615,28.202 M109.332,28.202c0-0.506,0.421-0.914,0.926-0.914c0.519,0,0.927,0.408,0.927,0.914
			c0,0.519-0.408,0.926-0.927,0.926C109.752,29.129,109.332,28.721,109.332,28.202 M113.049,28.202c0-0.506,0.407-0.914,0.926-0.914
			c0.506,0,0.927,0.408,0.927,0.914c0,0.519-0.421,0.926-0.927,0.926C113.457,29.129,113.049,28.721,113.049,28.202"/>
	</g>
	<g id="PageItem2096" transform="scale(1)">
		<path fill="#1B1B19" d="M38.467,155.553h2.394c0.399,0,0.703,0.087,0.916,0.258c0.211,0.172,0.318,0.468,0.318,0.891
			c0,0.376-0.118,0.663-0.354,0.863c-0.235,0.2-0.526,0.3-0.879,0.3h-2.394V155.553z M37.002,162.733h3.846
			c0.54,0,1.005-0.062,1.397-0.184c0.391-0.12,0.709-0.284,0.961-0.491c0.25-0.208,0.434-0.454,0.552-0.741
			c0.116-0.284,0.176-0.591,0.176-0.918c0-0.572-0.132-1.047-0.398-1.426c-0.265-0.381-0.658-0.625-1.173-0.733v-0.023
			c0.382-0.164,0.677-0.398,0.885-0.7c0.207-0.299,0.311-0.66,0.311-1.085c0-0.694-0.226-1.213-0.68-1.558
			c-0.454-0.346-1.056-0.517-1.806-0.517h-4.07V162.733z M38.467,158.92h2.594c0.444,0,0.792,0.11,1.038,0.334
			c0.247,0.223,0.37,0.541,0.37,0.956c0,0.422-0.123,0.748-0.37,0.979c-0.246,0.231-0.594,0.345-1.038,0.345h-2.594V158.92z
			 M49.013,162.733h6.113v-1.268H50.48v-2.451h4.223v-1.198H50.48v-2.192h4.562v-1.267h-6.029V162.733z M59.359,155.623h2.651v7.109
			h1.466v-7.109h2.663v-1.267h-6.78V155.623z M70.07,155.623h2.652v7.109h1.465v-7.109h2.663v-1.267h-6.78V155.623z M88.67,159.858
			c0.711-0.596,1.512-0.786,2.134-0.786c0.281,0,0.503,0,0.828,0.03c-0.369,1.822-1.776,2.92-3.348,2.92
			c-1.584,0-2.536-1.009-2.536-2.313c-0.013-1.569,1.394-2.324,2.611-2.342c0.207,0,0.34,0,0.504,0.046l0.311-0.429
			c-1.141-0.208-1.662-0.845-1.662-1.573c0-1.126,0.832-1.852,1.986-1.852c0.358,0,0.565,0.043,0.729,0.118
			c0.03,0.504,0.134,1.232,0.205,1.526l0.298-0.104c0.282-0.312,0.695-1.066,0.724-1.334c-0.384-0.415-1.211-0.709-2.028-0.709
			c-1.765,0-3.125,1.021-3.125,2.489c0,0.65,0.354,1.215,0.798,1.495v0.046c-1.764,0.578-2.726,1.556-2.726,2.918
			c0,1.705,1.375,2.918,3.422,2.918c1.792,0,3.911-0.991,4.355-3.765c0.638,0.075,0.86,0.121,1.154,0.208
			c0.312-0.546,0.801-1.271,1.186-1.76l-0.251-0.255c-0.312,0.239-0.638,0.507-1.065,0.923c-0.312-0.032-0.892-0.091-1.689-0.091
			c-1.331,0-2.297,0.651-2.86,1.257L88.67,159.858z M102.275,155.553h2.394c0.399,0,0.703,0.087,0.915,0.258
			c0.21,0.172,0.316,0.468,0.316,0.891c0,0.376-0.117,0.663-0.353,0.863c-0.233,0.2-0.528,0.3-0.879,0.3h-2.394V155.553z
			 M100.808,162.733h3.849c0.536,0,1.003-0.062,1.395-0.184c0.391-0.12,0.712-0.284,0.963-0.491c0.251-0.208,0.434-0.454,0.55-0.741
			c0.119-0.284,0.179-0.591,0.179-0.918c0-0.572-0.136-1.047-0.399-1.426c-0.267-0.381-0.66-0.625-1.175-0.733v-0.023
			c0.385-0.164,0.677-0.398,0.887-0.7c0.207-0.299,0.311-0.66,0.311-1.085c0-0.694-0.227-1.213-0.683-1.558
			c-0.45-0.346-1.054-0.517-1.805-0.517h-4.07V162.733z M102.275,158.92h2.593c0.446,0,0.788,0.11,1.037,0.334
			c0.246,0.223,0.369,0.541,0.369,0.956c0,0.422-0.123,0.748-0.369,0.979c-0.249,0.231-0.591,0.345-1.037,0.345h-2.593V158.92z
			 M112.822,162.733h1.464v-3.448h2.159c0.337,0,0.613,0.041,0.827,0.127c0.214,0.087,0.385,0.223,0.511,0.407
			c0.124,0.182,0.211,0.413,0.258,0.69s0.069,0.607,0.069,0.991c0,0.203,0.01,0.415,0.029,0.633c0.02,0.219,0.085,0.419,0.195,0.6
			h1.571c-0.156-0.174-0.271-0.461-0.346-0.863c-0.075-0.402-0.113-0.852-0.113-1.344c0-0.327-0.039-0.603-0.121-0.819
			c-0.084-0.22-0.188-0.398-0.311-0.535c-0.126-0.136-0.261-0.237-0.405-0.297c-0.145-0.065-0.28-0.104-0.405-0.118v-0.024
			c0.069-0.024,0.184-0.07,0.335-0.143c0.153-0.067,0.308-0.183,0.463-0.345c0.157-0.159,0.292-0.371,0.411-0.634
			c0.117-0.261,0.175-0.591,0.175-0.989c0-0.713-0.229-1.269-0.691-1.666c-0.461-0.398-1.153-0.599-2.078-0.599h-3.997V162.733z
			 M114.286,155.553h2.381c0.189,0,0.37,0.015,0.547,0.047c0.174,0.03,0.331,0.093,0.47,0.188c0.137,0.094,0.244,0.226,0.321,0.393
			c0.079,0.169,0.118,0.386,0.118,0.651c0,0.446-0.121,0.779-0.364,1.003c-0.241,0.223-0.597,0.333-1.066,0.333h-2.406V155.553z
			 M129.555,155.623c0.323,0.182,0.587,0.422,0.791,0.721c0.204,0.302,0.354,0.646,0.452,1.027c0.098,0.384,0.146,0.774,0.146,1.172
			c0,0.398-0.049,0.791-0.146,1.174c-0.099,0.385-0.248,0.725-0.452,1.027c-0.204,0.3-0.468,0.541-0.791,0.721
			c-0.324,0.18-0.71,0.27-1.157,0.27c-0.444,0-0.83-0.09-1.154-0.27c-0.325-0.18-0.59-0.421-0.791-0.721
			c-0.205-0.303-0.354-0.643-0.452-1.027c-0.098-0.383-0.148-0.775-0.148-1.174c0-0.397,0.051-0.788,0.148-1.172
			c0.098-0.382,0.247-0.726,0.452-1.027c0.201-0.299,0.466-0.539,0.791-0.721c0.324-0.182,0.71-0.271,1.154-0.271
			C128.845,155.353,129.231,155.442,129.555,155.623 M126.715,154.509c-0.497,0.233-0.916,0.552-1.262,0.95
			c-0.343,0.398-0.608,0.864-0.791,1.396c-0.186,0.53-0.277,1.095-0.277,1.688c0,0.604,0.092,1.17,0.277,1.7
			c0.183,0.533,0.448,0.999,0.791,1.396c0.346,0.398,0.765,0.714,1.262,0.945c0.497,0.229,1.058,0.346,1.683,0.346
			c0.623,0,1.187-0.116,1.685-0.346c0.496-0.231,0.917-0.547,1.261-0.945c0.343-0.397,0.605-0.863,0.793-1.396
			c0.182-0.53,0.273-1.097,0.273-1.7c0-0.593-0.092-1.157-0.273-1.688c-0.188-0.532-0.45-0.998-0.793-1.396
			c-0.344-0.398-0.765-0.717-1.261-0.95c-0.498-0.234-1.062-0.353-1.685-0.353C127.773,154.156,127.212,154.275,126.715,154.509
			 M136.705,155.623h2.649v7.109h1.468v-7.109h2.662v-1.267h-6.779V155.623z"/>
	</g>
	<g id="PageItem2097" transform="scale(1)">
		<path fill="#1B1B19" d="M110.923,4.882c-2.414,0-2.769,1.61-2.769,1.61s0.523-0.714,1.794-0.569
			c2.003,0.226,3.034,4.513-0.516,4.771c-4.749,0.343-10.555-10.447-19.596-4.287c-9.039-6.161-14.85,4.629-19.594,4.287
			c-3.549-0.259-2.52-4.546-0.515-4.771c1.271-0.144,1.792,0.57,1.792,0.57s-0.353-1.611-2.768-1.611
			c-2.98,0-3.941,3.228-3.763,4.939c0.321,3.088,2.93,7.117,9.798,7.117c10.187,0,15.05-5.12,15.05-5.12s4.863,5.12,15.05,5.12
			c6.871,0,9.478-4.029,9.799-7.117C114.862,8.11,113.904,4.882,110.923,4.882"/>
	</g>
	<g id="PageItem2098" transform="scale(1)">
		<path fill="#1B1B19" d="M26.724,135.384l-0.035-28.438h8.612v-9.102l-8.612,0.036V79.189l12.533,0.008v-9.146H18.54h-2.521v2.894
			v62.438H26.724z M57.597,100.262l0.036-9.768c-5.04,0-8.32,3.186-8.787,3.465l0.017-3.465h-9.144v44.89l4.664-0.013l5.32,0.013
			v-28.567C49.703,103.18,54.097,100.295,57.597,100.262 M87.783,135.384v-44.89h-4.389h-4.831v2.872
			c-1.214-1.588-3.32-2.876-6.083-2.876c-5.507,0-11.758,3.448-11.758,13.435v18.196c0,9.052,4.945,13.25,11.851,13.25
			c3.859,0,5.208-2.629,5.955-3.468l0.016,3.48l5.039-0.013L87.783,135.384z M77.986,106.351v12.879
			c0,3.545-0.653,6.251-3.733,6.251c-3.078,0-3.731-2.706-3.731-6.251v-12.879c0-2.892,0.746-6.157,3.731-6.157
			C77.333,100.194,77.986,103.459,77.986,106.351 M120.537,135.384v-31.271c0-9.894-4.76-13.532-10.919-13.532
			c-3.754,0-5.957,1.806-7.077,3.765l-0.014-3.852H93.38v44.89l4.667-0.013l5.318,0.013v-29.593c0-3.079,1.215-5.598,4.291-5.598
			c2.614,0,2.801,3.078,2.801,5.878v29.312c0,0,5.335-0.024,5.412-0.013C115.946,135.384,120.537,135.384,120.537,135.384
			 M135.287,124.174l13.491-24.158l0.041-5.048l-0.041-4.387h-23.24l-0.045,4.572l0.045,3.64h9.379l4.622,0.033l-2.009,3.605
			c0,0-7.559,13.25-12.599,22.21c-0.277,0.466-0.023,10.742-0.023,10.742l1.518-0.013h22.701l-0.025-3.825l0.025-4.479h-10.572
			l-4.826,0.041L135.287,124.174z M163.656,135.384V70.159l-5.226-0.013l-4.667,0.013v65.225l4.667-0.013L163.656,135.384z"/>
	</g>
	<g id="PageItem2099" transform="scale(1)">
		<path fill="#1B1B19" d="M99.223,82.515V52.838H96.32h-3.192v1.897c-0.802-1.05-2.195-1.901-4.023-1.901
			c-3.641,0-7.774,2.281-7.774,8.882v12.028c0,5.987,3.27,8.762,7.836,8.762c2.551,0,3.442-1.738,3.936-2.294l0.012,2.302
			l3.332-0.008L99.223,82.515z M92.744,63.321v8.513c0,2.344-0.433,4.133-2.466,4.133c-2.037,0-2.469-1.789-2.469-4.133v-8.513
			c0-1.914,0.494-4.072,2.469-4.072C92.311,59.249,92.744,61.407,92.744,63.321"/>
	</g>
	<g id="PageItem2100" transform="scale(1)">
		<path fill="#1B1B19" d="M102.415,60.915c0,10.135,10.625,7.74,10.625,13.268c0,1.534-0.551,2.641-2.394,2.641
			s-2.396-1.412-2.396-3.071l-5.981-0.024c0,5.776,3.831,8.746,8.501,8.746c4.668,0,8.537-3.625,8.537-7.799
			c0-10.075-10.932-9.461-10.932-13.636c0-1.721,0.798-2.642,2.147-2.642c1.229,0,2.142,1.229,2.142,3.256l6.214-0.001
			c0-4.606-3.379-8.661-8.231-8.661C105.486,52.991,102.415,57.046,102.415,60.915"/>
	</g>
	<g id="PageItem2101" transform="scale(1)">
		<path fill="#1B1B19" d="M78.26,82.515V39.476h-6.096v15.259c-0.802-1.05-2.195-1.901-4.021-1.901c-3.64,0-7.773,2.281-7.773,8.882
			v12.028c0,5.987,3.268,8.762,7.834,8.762c2.552,0,3.444-1.738,3.935-2.294l0.014,2.302l3.331-0.008L78.26,82.515z M71.783,63.321
			v8.513c0,2.344-0.433,4.133-2.467,4.133c-2.037,0-2.469-1.789-2.469-4.133v-8.513c0-1.914,0.493-4.072,2.469-4.072
			C71.35,59.249,71.783,61.407,71.783,63.321"/>
	</g>
</g>
</svg>
