<?xml version="1.0" encoding="utf-8"?>
<!-- Generator: Adobe Illustrator 16.0.4, SVG Export Plug-In . SVG Version: 6.00 Build 0)  -->
<!DOCTYPE svg PUBLIC "-//W3C//DTD SVG 1.1//EN" "http://www.w3.org/Graphics/SVG/1.1/DTD/svg11.dtd">
<svg version="1.1" id="Ebene_1" xmlns="http://www.w3.org/2000/svg" xmlns:xlink="http://www.w3.org/1999/xlink" x="0px" y="0px"
	 width="240.945px" height="79.373px" viewBox="0 0 240.945 79.373" enable-background="new 0 0 240.945 79.373"
	 xml:space="preserve">
<g>
	<path d="M220.937,58.229c0.114,0,0.206-0.092,0.206-0.206v-6.458c0-2.552-1.723-3.379-3.033-3.379
		c-0.943,0-1.816,0.368-2.482,0.942l-0.713-0.253v-5.469c0-0.115-0.092-0.207-0.207-0.207h-1.172c-0.115,0-0.207,0.092-0.207,0.207
		v14.616c0,0.114,0.092,0.206,0.207,0.206h1.172c0.115,0,0.207-0.092,0.207-0.206v-6.298c0-1.562,1.356-2.229,2.482-2.229
		c1.333,0,2.161,0.804,2.161,2.068v6.458c0,0.114,0.092,0.206,0.206,0.206H220.937z M207.101,49.497c1.655,0,2.345,1.172,2.62,1.976
		c0.046,0.139,0.138,0.161,0.275,0.115l1.012-0.39c0.115-0.046,0.16-0.139,0.115-0.276c-0.528-1.494-1.793-2.735-3.977-2.735
		c-2.689,0-4.643,2.092-4.643,5.079c0,2.735,1.656,5.103,4.574,5.103c2.345,0,3.586-1.448,4.067-2.689
		c0.069-0.161-0.046-0.229-0.114-0.253l-0.988-0.413c-0.115-0.046-0.23,0-0.299,0.139c-0.414,0.941-1.08,1.884-2.644,1.884
		c-1.907,0-2.94-1.725-2.94-3.77C204.161,51.128,205.286,49.497,207.101,49.497 M200,45.934c0.207,0,0.322-0.114,0.322-0.299v-1.54
		c0-0.184-0.115-0.299-0.322-0.299h-1.172c-0.207,0-0.322,0.115-0.322,0.299v1.54c0,0.185,0.115,0.299,0.322,0.299H200z M200,58.229
		c0.115,0,0.207-0.092,0.207-0.206v-9.491c0-0.115-0.092-0.207-0.207-0.207h-1.172c-0.115,0-0.207,0.092-0.207,0.207v9.491
		c0,0.114,0.092,0.206,0.207,0.206H200z M192.186,58.368c2.298,0,3.539-1.518,3.999-2.62c0.069-0.161-0.046-0.23-0.114-0.253
		l-0.966-0.459c-0.114-0.046-0.229,0-0.299,0.138c-0.414,0.919-1.103,1.884-2.62,1.884c-1.725,0-2.781-1.517-2.896-3.193
		l0.369-0.392h6.135c0.3,0,0.438-0.114,0.483-0.552c0.207-2.643-1.448-4.734-4.091-4.734c-2.804,0-4.55,2.391-4.55,4.987
		C187.636,56.46,189.704,58.368,192.186,58.368 M189.359,52.232c0.253-1.701,1.448-2.759,2.781-2.759
		c1.517,0,2.597,1.149,2.528,2.759H189.359z M182.511,58.229c0.114,0,0.207-0.092,0.207-0.206v-5.24
		c0-1.953,0.896-3.125,2.137-3.125c0.368,0,0.666,0.115,1.08,0.345c0.115,0.068,0.253,0.023,0.299-0.092l0.483-1.104
		c0.046-0.113,0.023-0.229-0.092-0.298c-0.23-0.138-0.621-0.322-1.059-0.322c-1.033,0-1.607,0.3-2.229,1.104h-0.666l-0.115-0.735
		c-0.023-0.138-0.115-0.229-0.275-0.229h-0.92c-0.138,0-0.229,0.092-0.229,0.207v9.491c0,0.114,0.092,0.206,0.206,0.206H182.511z
		 M175.226,58.229c0.114,0,0.206-0.092,0.206-0.206v-5.24c0-1.953,0.896-3.125,2.139-3.125c0.366,0,0.666,0.115,1.079,0.345
		c0.115,0.068,0.253,0.023,0.3-0.092l0.481-1.104c0.046-0.113,0.022-0.229-0.093-0.298c-0.229-0.138-0.619-0.322-1.057-0.322
		c-1.033,0-1.608,0.3-2.229,1.104h-0.667l-0.114-0.735c-0.023-0.138-0.115-0.229-0.275-0.229h-0.92
		c-0.138,0-0.229,0.092-0.229,0.207v9.491c0,0.114,0.092,0.206,0.206,0.206H175.226z M167.504,58.368
		c2.298,0,3.539-1.518,3.998-2.62c0.068-0.161-0.045-0.23-0.114-0.253l-0.966-0.459c-0.115-0.046-0.229,0-0.299,0.138
		c-0.414,0.919-1.104,1.884-2.619,1.884c-1.725,0-2.781-1.517-2.896-3.193l0.368-0.392h6.136c0.299,0,0.437-0.114,0.482-0.552
		c0.207-2.643-1.447-4.734-4.09-4.734c-2.805,0-4.551,2.391-4.551,4.987C162.954,56.46,165.021,58.368,167.504,58.368
		 M164.677,52.232c0.253-1.701,1.448-2.759,2.78-2.759c1.517,0,2.598,1.149,2.529,2.759H164.677z M161.161,56.896
		c-0.045-0.138-0.138-0.184-0.252-0.138c-0.23,0.092-0.553,0.253-0.966,0.253c-0.759,0-1.126-0.597-1.126-1.747V49.68h2.436
		c0.115,0,0.207-0.092,0.207-0.207v-0.85c0-0.115-0.092-0.207-0.207-0.207h-2.436v-1.839c0-0.138-0.092-0.299-0.299-0.276
		l-1.104,0.069l-0.138,2.046h-1.194c-0.115,0-0.207,0.092-0.207,0.207v0.85c0,0.115,0.092,0.207,0.207,0.207h1.148v5.63
		c0,2.553,1.426,3.058,2.551,3.058c0.827,0,1.287-0.253,1.563-0.392c0.092-0.046,0.159-0.159,0.114-0.298L161.161,56.896z
		 M149.624,53.265c0.621,0.322,1.426,0.621,2.068,0.965c0.827,0.438,1.012,0.806,1.012,1.356c0,0.759-0.735,1.471-1.931,1.471
		c-1.194,0-1.862-0.804-2-1.838c-0.022-0.138-0.138-0.161-0.252-0.115l-1.012,0.299c-0.138,0.046-0.185,0.16-0.138,0.345
		c0.299,1.54,1.539,2.62,3.355,2.62c1.977,0,3.493-1.241,3.493-2.873c0-1.287-0.781-2.045-2.091-2.689
		c-0.506-0.252-1.012-0.436-1.494-0.666c-0.873-0.414-1.311-0.713-1.311-1.401c0-0.645,0.666-1.241,1.655-1.241
		c0.966,0,1.493,0.437,1.746,1.355c0.046,0.185,0.185,0.185,0.276,0.139l1.011-0.368c0.092-0.023,0.114-0.115,0.069-0.253
		c-0.344-1.172-1.241-2.184-3.103-2.184c-1.771,0-3.172,1.173-3.172,2.574C147.808,51.84,148.475,52.667,149.624,53.265
		 M139.833,45.934c0.139,0,0.276-0.138,0.276-0.321v-1.426c0-0.138-0.114-0.275-0.321-0.275h-1.08c-0.139,0-0.276,0.138-0.276,0.275
		v1.472c0,0.138,0.114,0.275,0.321,0.275H139.833z M143.579,45.934c0.139,0,0.276-0.138,0.276-0.321v-1.426
		c0-0.138-0.114-0.275-0.321-0.275h-1.08c-0.139,0-0.276,0.138-0.276,0.275v1.472c0,0.138,0.114,0.275,0.321,0.275H143.579z
		 M141.167,58.368c2.758,0,4.666-2.091,4.666-5.103c0-2.987-1.908-5.079-4.666-5.079s-4.666,2.092-4.666,5.079
		C136.5,56.277,138.409,58.368,141.167,58.368 M141.167,57.081c-2.092,0-3.01-1.793-3.01-3.815c0-1.999,0.918-3.792,3.01-3.792
		s3.011,1.793,3.011,3.792C144.177,55.288,143.258,57.081,141.167,57.081 M131.375,58.229c0.115,0,0.207-0.092,0.207-0.206v-5.24
		c0-1.953,0.896-3.125,2.138-3.125c0.368,0,0.667,0.115,1.08,0.345c0.114,0.068,0.253,0.023,0.299-0.092l0.483-1.104
		c0.045-0.113,0.022-0.229-0.092-0.298c-0.23-0.138-0.621-0.322-1.058-0.322c-1.035,0-1.608,0.3-2.229,1.104h-0.666l-0.115-0.735
		c-0.023-0.138-0.115-0.229-0.276-0.229h-0.919c-0.139,0-0.23,0.092-0.23,0.207v9.491c0,0.114,0.092,0.206,0.207,0.206H131.375z
		 M123.655,58.368c2.297,0,3.538-1.518,3.998-2.62c0.069-0.161-0.046-0.23-0.115-0.253l-0.965-0.459
		c-0.115-0.046-0.229,0-0.299,0.138c-0.414,0.919-1.104,1.884-2.619,1.884c-1.725,0-2.782-1.517-2.896-3.193l0.368-0.392h6.136
		c0.299,0,0.438-0.114,0.482-0.552c0.207-2.643-1.447-4.734-4.09-4.734c-2.805,0-4.552,2.391-4.552,4.987
		C119.103,56.46,121.172,58.368,123.655,58.368 M120.827,52.232c0.253-1.701,1.448-2.759,2.781-2.759
		c1.518,0,2.598,1.149,2.528,2.759H120.827z M110.14,52.623c0-1.701,0.897-3.149,2.758-3.149c2,0,2.873,1.771,2.873,3.792
		c0,2.022-0.873,3.815-2.873,3.815c-1.861,0-2.758-1.471-2.758-3.148V52.623z M109.819,58.229c0.138,0,0.207-0.092,0.23-0.229
		l0.091-0.528h0.644c0.643,0.552,1.425,0.896,2.321,0.896c2.827,0,4.321-2.391,4.321-5.103c0-3.033-1.77-5.079-4.321-5.079
		c-0.919,0-1.746,0.368-2.436,0.966l-0.46-0.161v-5.584c0-0.115-0.092-0.207-0.206-0.207h-1.173c-0.114,0-0.206,0.092-0.206,0.207
		v14.616c0,0.114,0.092,0.206,0.206,0.206H109.819z M99.339,57.035c-3.378,0-5.171-2.781-5.171-6.113c0-3.264,1.793-6.09,5.171-6.09
		c3.378,0,5.171,2.826,5.171,6.09C104.51,54.253,102.717,57.035,99.339,57.035 M99.339,58.529c4.528,0,6.964-3.562,6.964-7.63
		c0-4.459-2.827-7.538-6.964-7.538c-4.137,0-6.964,3.079-6.964,7.538C92.375,54.966,94.811,58.529,99.339,58.529"/>
	<path d="M220.936,35.689c0.115,0,0.207-0.092,0.207-0.207V29.07c0-2.573-1.447-3.424-2.85-3.424c-1.104,0-1.725,0.345-2.482,1.08
		h-0.92c-0.597-0.759-1.4-1.08-2.183-1.08c-1.034,0-1.608,0.298-2.252,0.896h-0.759l-0.092-0.529
		c-0.022-0.137-0.114-0.229-0.275-0.229h-0.92c-0.137,0-0.229,0.092-0.229,0.206v9.491c0,0.115,0.092,0.207,0.205,0.207h1.174
		c0.113,0,0.205-0.092,0.205-0.207v-6.297c0-1.562,1.241-2.229,2.254-2.229c1.217,0,1.86,0.804,1.86,2.067v6.458
		c0,0.115,0.093,0.207,0.207,0.207h1.172c0.115,0,0.207-0.092,0.207-0.207V29.07c0.046-1.471,1.218-2.113,2.229-2.113
		c1.195,0,1.861,0.804,1.861,2.067v6.458c0,0.115,0.092,0.207,0.207,0.207H220.936z M202.504,35.689
		c0.115,0,0.207-0.092,0.207-0.207v-5.239c0-1.953,0.896-3.125,2.137-3.125c0.368,0,0.668,0.113,1.082,0.344
		c0.113,0.068,0.252,0.022,0.297-0.092l0.483-1.104c0.046-0.115,0.022-0.229-0.092-0.299c-0.229-0.137-0.621-0.321-1.058-0.321
		c-1.033,0-1.608,0.298-2.229,1.104h-0.667l-0.115-0.736c-0.022-0.137-0.114-0.229-0.276-0.229h-0.918
		c-0.139,0-0.23,0.092-0.23,0.206v9.491c0,0.115,0.092,0.207,0.207,0.207H202.504z M194.254,35.828c2.758,0,4.665-2.092,4.665-5.103
		c0-2.988-1.907-5.079-4.665-5.079s-4.666,2.091-4.666,5.079C189.588,33.736,191.497,35.828,194.254,35.828 M194.254,34.541
		c-2.092,0-3.011-1.793-3.011-3.815c0-2,0.919-3.792,3.011-3.792s3.01,1.792,3.01,3.792
		C197.264,32.748,196.346,34.541,194.254,34.541 M186.188,35.689c0.115,0,0.207-0.092,0.207-0.207V27.14h1.77
		c0.113,0,0.206-0.092,0.206-0.207v-0.851c0-0.115-0.093-0.206-0.206-0.206h-1.77v-1.678c0-1.173,0.252-2.345,1.447-2.345
		c0.346,0,0.574,0.069,0.873,0.184c0.069,0.022,0.184,0.022,0.23-0.092l0.322-0.896c0.045-0.115,0.022-0.23-0.139-0.299
		c-0.184-0.091-0.667-0.275-1.287-0.275c-1.609,0-3.033,1.126-3.033,3.724v1.678h-1.449c-0.114,0-0.207,0.091-0.207,0.206v0.851
		c0,0.115,0.093,0.207,0.207,0.207h1.449v8.342c0,0.115,0.092,0.207,0.207,0.207H186.188z M181.315,34.356
		c-0.045-0.138-0.137-0.184-0.252-0.138c-0.23,0.092-0.551,0.253-0.965,0.253c-0.759,0-1.127-0.598-1.127-1.747V27.14h2.437
		c0.114,0,0.207-0.092,0.207-0.207v-0.851c0-0.115-0.093-0.206-0.207-0.206h-2.437v-1.839c0-0.139-0.092-0.3-0.299-0.276
		l-1.104,0.069l-0.137,2.046h-1.195c-0.115,0-0.207,0.091-0.207,0.206v0.851c0,0.115,0.092,0.207,0.207,0.207h1.148v5.63
		c0,2.551,1.426,3.058,2.551,3.058c0.828,0,1.287-0.253,1.563-0.392c0.092-0.046,0.161-0.161,0.115-0.299L181.315,34.356z
		 M174.537,34.356c-0.046-0.138-0.138-0.184-0.253-0.138c-0.23,0.092-0.553,0.253-0.967,0.253c-0.758,0-1.125-0.598-1.125-1.747
		V27.14h2.436c0.115,0,0.207-0.092,0.207-0.207v-0.851c0-0.115-0.092-0.206-0.207-0.206h-2.436v-1.839
		c0-0.139-0.092-0.3-0.299-0.276l-1.104,0.069l-0.137,2.046h-1.196c-0.114,0-0.206,0.091-0.206,0.206v0.851
		c0,0.115,0.092,0.207,0.206,0.207h1.149v5.63c0,2.551,1.424,3.058,2.552,3.058c0.827,0,1.286-0.253,1.562-0.392
		c0.092-0.046,0.161-0.161,0.115-0.299L174.537,34.356z M165.436,33.576c-0.599,0.712-1.356,1.011-2.069,1.011
		c-0.942,0-1.608-0.46-1.608-1.356c0-0.667,0.391-1.194,1.149-1.494l2.114-0.804l0.414,0.092V33.576z M168.194,34.702
		c0-0.139-0.069-0.253-0.185-0.253c-0.92,0-1.057-0.23-1.057-1.402v-3.884c0-2.482-1.356-3.517-3.379-3.517
		c-1.724,0-2.942,1.034-3.355,2.413c-0.022,0.092,0,0.185,0.115,0.23l0.987,0.344c0.115,0.046,0.207,0.023,0.254-0.092
		c0.32-0.942,1.057-1.562,1.999-1.562s1.862,0.391,1.862,1.999v0.299l-0.207,0.322l-2.828,1.011
		c-1.493,0.528-2.229,1.448-2.229,2.759c0,1.562,1.287,2.459,2.758,2.459c0.758,0,1.678-0.3,2.184-0.851h0.781
		c0.299,0.413,0.713,0.781,1.494,0.781c0.506,0,0.896-0.184,0.873-0.414L168.194,34.702z M157.483,35.689
		c0.115,0,0.207-0.092,0.207-0.207V20.866c0-0.115-0.092-0.206-0.207-0.206h-1.172c-0.115,0-0.207,0.091-0.207,0.206v14.616
		c0,0.115,0.092,0.207,0.207,0.207H157.483z M146.589,30.082c0-1.678,0.897-3.148,2.759-3.148c2,0,2.873,1.792,2.873,3.815
		c0,2.021-0.873,3.792-2.873,3.792c-1.861,0-2.759-1.448-2.759-3.149V30.082z M145.28,25.785c-0.115,0-0.206,0.092-0.206,0.206
		v14.065c0,0.115,0.091,0.207,0.206,0.207h1.172c0.115,0,0.207-0.092,0.207-0.207v-5.033l0.46-0.161
		c0.688,0.598,1.517,0.966,2.437,0.966c2.551,0,4.32-2.046,4.32-5.079c0-2.712-1.494-5.103-4.32-5.103
		c-0.896,0-1.679,0.345-2.322,0.896h-0.644l-0.092-0.529c-0.022-0.137-0.091-0.229-0.229-0.229H145.28z M139.167,35.689
		c0.115,0,0.207-0.092,0.207-0.207v-5.239c0-1.953,0.896-3.125,2.137-3.125c0.368,0,0.668,0.113,1.081,0.344
		c0.115,0.068,0.252,0.022,0.298-0.092l0.483-1.104c0.046-0.115,0.022-0.229-0.093-0.299c-0.229-0.137-0.619-0.321-1.057-0.321
		c-1.033,0-1.608,0.298-2.229,1.104h-0.667l-0.115-0.736c-0.022-0.137-0.114-0.229-0.276-0.229h-0.918
		c-0.139,0-0.23,0.092-0.23,0.206v9.491c0,0.115,0.092,0.207,0.207,0.207H139.167z M134.8,35.689c0.138,0,0.229-0.092,0.229-0.207
		v-9.491c0-0.114-0.092-0.206-0.206-0.206h-1.173c-0.114,0-0.207,0.092-0.207,0.206v6.298c0,1.562-1.332,2.229-2.436,2.229
		c-1.287,0-2.092-0.804-2.092-2.068v-6.436c0-0.137-0.092-0.229-0.23-0.229h-1.125c-0.139,0-0.23,0.092-0.23,0.229v6.436
		c0,2.552,1.701,3.379,2.965,3.379c1.034,0,1.793-0.3,2.482-0.896h0.736l0.092,0.528c0.022,0.138,0.115,0.229,0.274,0.229H134.8z
		 M125.102,34.356c-0.047-0.138-0.138-0.184-0.252-0.138c-0.23,0.092-0.553,0.253-0.967,0.253c-0.758,0-1.126-0.598-1.126-1.747
		V27.14h2.437c0.115,0,0.207-0.092,0.207-0.207v-0.851c0-0.115-0.092-0.206-0.207-0.206h-2.437v-1.839
		c0-0.139-0.092-0.3-0.299-0.276l-1.103,0.069l-0.138,2.046h-1.195c-0.115,0-0.207,0.091-0.207,0.206v0.851
		c0,0.115,0.092,0.207,0.207,0.207h1.149v5.63c0,2.551,1.425,3.058,2.552,3.058c0.827,0,1.286-0.253,1.562-0.392
		c0.092-0.046,0.16-0.161,0.115-0.299L125.102,34.356z M117.586,35.689c0.115,0,0.207-0.092,0.207-0.207V20.866
		c0-0.115-0.092-0.206-0.207-0.206h-1.172c-0.115,0-0.207,0.091-0.207,0.206v14.616c0,0.115,0.092,0.207,0.207,0.207H117.586z
		 M113.221,35.689c0.138,0,0.23-0.092,0.23-0.207v-9.491c0-0.114-0.092-0.206-0.207-0.206h-1.172c-0.115,0-0.207,0.092-0.207,0.206
		v6.298c0,1.562-1.333,2.229-2.436,2.229c-1.287,0-2.092-0.804-2.092-2.068v-6.436c0-0.137-0.092-0.229-0.23-0.229h-1.126
		c-0.138,0-0.23,0.092-0.23,0.229v6.436c0,2.552,1.701,3.379,2.965,3.379c1.034,0,1.793-0.3,2.482-0.896h0.736l0.092,0.528
		c0.023,0.138,0.115,0.229,0.275,0.229H113.221z M103.958,35.689c0.23,0,0.368-0.161,0.23-0.368l-5.677-8.434l4.689-5.401
		c0.114-0.114,0.092-0.367-0.23-0.367h-1.241c-0.184,0-0.345,0.068-0.46,0.184l-6.366,7.538v-7.469c0-0.161-0.092-0.253-0.253-0.253
		h-1.172c-0.184,0-0.253,0.092-0.253,0.253v14.042c0,0.161,0.092,0.275,0.253,0.275h1.172c0.184,0,0.253-0.114,0.253-0.275v-4.297
		l2.183-2.575h0.529l4.619,6.895c0.092,0.139,0.23,0.253,0.391,0.253H103.958z"/>
</g>
<path d="M21.917,53.277h6.586l5.003,5.003h-6.587L21.917,53.277z M29.379,52.403v-8.755l5.002,5.003v8.754L29.379,52.403z
	 M39.676,42.148l4.126-4.127l11.047,11.171v8.213L39.676,42.148z M29.379,21.972l4.294,4.335L29.379,30.6V21.972z M29.629,42.148
	l20.802-20.802l4.168,4.127L37.883,42.148L53.974,58.28H45.72L29.629,42.148z M40.634,21.096h8.296L28.129,41.898v10.129h-7.087
	V21.096h7.087v12.506L40.634,21.096z M40.134,19.846l-5.586,5.585l-5.544-5.585h-9.213v33.056l6.629,6.629h9.212v-9.63l9.588,9.63
	H56.1V48.692L44.678,37.145L56.35,25.473l-5.67-5.627H40.134z"/>
</svg>
